# xmcd
#
# Track frame offsets:
# 150
# 13959
# 33024
# 50001
# 68058
# 91611
# 113460
# 132645
# 154590
# 171879
# 201264
# 216489
# 238098
# 258291
#
# Disc length: 3720 seconds
#
#
# Revision: 0
# Processed by: cddbd v1.5PL3 Copyright (c) Steve Scherf et al.
# Submitted via: FreeRIP 2.35 
#
DISCID=bf0e860e
DTITLE=Anderson, Flesher and Key - Live at Bourbon Street Cafe V2
DYEAR=1900
DGENRE=Blues
TTITLE0=Morning Sky
TTITLE1=Allright Guy
TTITLE2=Ohio
TTITLE3=Ob-La-Di, Ob-La-Da
TTITLE4=Heart Of The Night
TTITLE5=Amy
TTITLE6=Love Me Two Times
TTITLE7=Crazy Love
TTITLE8=It's Your Move
TTITLE9=Dixie Chicken
TTITLE10=Bad Case Of Loving You
TTITLE11=Hurt So Good
TTITLE12=You May Be Right
TTITLE13=Party Town
EXTD=
EXTT0=
EXTT1=
EXTT2=
EXTT3=
EXTT4=
EXTT5=
EXTT6=
EXTT7=
EXTT8=
EXTT9=
EXTT10=
EXTT11=
EXTT12=
EXTT13=
PLAYORDER=
